<svg width="23" height="23" viewBox="0 0 23 23" fill="none" xmlns="http://www.w3.org/2000/svg">
<path fill-rule="evenodd" clip-rule="evenodd" d="M0.585817 19.2471C-0.195232 20.0281 -0.195232 21.2944 0.585817 22.0755C1.36687 22.8565 2.6332 22.8565 3.41424 22.0755L11.3307 14.1591L19.2471 22.0755C20.0281 22.8565 21.2945 22.8565 22.0755 22.0755C22.8566 21.2945 22.8566 20.0281 22.0755 19.2471L14.1591 11.3306L22.0755 3.41421C22.8566 2.63317 22.8566 1.36684 22.0755 0.585787C21.2945 -0.195262 20.0281 -0.195261 19.2471 0.585787L11.3307 8.50222L3.41424 0.585803C2.6332 -0.195246 1.36687 -0.195246 0.585817 0.585803C-0.195232 1.36685 -0.195232 2.63318 0.585817 3.41423L8.50223 11.3306L0.585817 19.2471Z" fill="white"/>
</svg>
