<svg width="479" height="506" viewBox="0 0 479 506" fill="none" xmlns="http://www.w3.org/2000/svg">
<path d="M91.0254 -5.42767C186.796 47.3366 375.84 184.564 365.854 311.359C353.372 469.854 620.981 565.116 684.613 329.551" stroke="#4D8C81" stroke-opacity="0.49"/>
<path d="M95.957 -24.294C191.727 28.4703 380.772 165.698 370.786 292.493C358.304 450.987 625.912 546.25 689.545 310.685" stroke="#4D8C81" stroke-opacity="0.49"/>
<path d="M102.025 -47.5141C197.796 5.25017 386.84 142.478 376.854 269.273C364.372 427.767 631.981 523.03 695.613 287.465" stroke="#4D8C81" stroke-opacity="0.49"/>
<path d="M108.6 -72.6692C204.37 -19.9049 393.414 117.322 383.429 244.118C370.947 402.612 638.555 497.875 702.187 262.31" stroke="#4D8C81" stroke-opacity="0.49"/>
<path d="M113.656 -92.0192C209.427 -39.255 398.471 97.9724 388.485 224.768C376.003 383.262 643.612 478.525 707.244 242.959" stroke="#4D8C81" stroke-opacity="0.49"/>
<path d="M119.219 -113.304C214.989 -60.5401 404.033 76.6873 394.048 203.483C381.566 361.977 649.174 457.24 712.806 221.674" stroke="#4D8C81" stroke-opacity="0.49"/>
<path d="M127.059 -143.297C222.829 -90.5327 411.873 46.6947 401.888 173.49C389.405 331.984 657.014 427.247 720.646 191.682" stroke="#4D8C81" stroke-opacity="0.49"/>
<path d="M132.621 -164.582C228.391 -111.818 417.436 25.4096 407.45 152.205C394.968 310.699 662.576 405.962 726.209 170.397" stroke="#4D8C81" stroke-opacity="0.49"/>
<path d="M140.965 -196.51C236.735 -143.745 425.78 -6.51802 415.794 120.277C403.312 278.772 670.92 374.034 734.552 138.469" stroke="#4D8C81" stroke-opacity="0.49"/>
<path d="M147.033 -219.73C242.804 -166.965 431.848 -29.7381 421.862 97.0573C409.38 255.552 676.989 350.814 740.621 115.249" stroke="#4D8C81" stroke-opacity="0.49"/>
<path d="M153.607 -244.885C249.378 -192.121 438.422 -54.8932 428.436 71.9022C415.954 230.397 683.563 325.659 747.195 90.0939" stroke="#4D8C81" stroke-opacity="0.49"/>
<path d="M158.664 -264.235C254.434 -211.471 443.479 -74.2433 433.493 52.5522C421.011 211.046 688.619 306.309 752.252 70.7439" stroke="#4D8C81" stroke-opacity="0.49"/>
<path d="M164.229 -285.52C259.999 -232.756 449.043 -95.5284 439.058 31.2671C426.575 189.761 694.184 285.024 757.816 49.4588" stroke="#4D8C81" stroke-opacity="0.49"/>
<path d="M168.273 -301C264.044 -248.236 453.088 -111.008 443.102 15.787C430.62 174.281 698.229 269.544 761.861 33.9787" stroke="#4D8C81" stroke-opacity="0.49"/>
</svg>
