<svg width="408" height="435" viewBox="0 0 408 435" fill="none" xmlns="http://www.w3.org/2000/svg">
<path d="M-306.975 -76.4277C-211.204 -23.6634 -22.1599 113.564 -32.1456 240.359C-44.6277 398.854 222.981 494.116 286.613 258.551" stroke="#4D8C81" stroke-opacity="0.49"/>
<path d="M-302.043 -95.294C-206.273 -42.5297 -17.2283 94.6976 -27.214 221.493C-39.6961 379.987 227.912 475.25 291.545 239.685" stroke="#4D8C81" stroke-opacity="0.49"/>
<path d="M-295.975 -118.514C-200.204 -65.7498 -11.1599 71.4775 -21.1456 198.273C-33.6277 356.767 233.981 452.03 297.613 216.465" stroke="#4D8C81" stroke-opacity="0.49"/>
<path d="M-289.4 -143.669C-193.63 -90.9049 -4.58571 46.3224 -14.5714 173.118C-27.0535 331.612 240.555 426.875 304.187 191.31" stroke="#4D8C81" stroke-opacity="0.49"/>
<path d="M-284.344 -163.019C-188.573 -110.255 0.470928 26.9724 -9.51475 153.768C-21.9969 312.262 245.612 407.525 309.244 171.959" stroke="#4D8C81" stroke-opacity="0.49"/>
<path d="M-278.781 -184.304C-183.011 -131.54 6.03343 5.68728 -3.95225 132.483C-16.4344 290.977 251.174 386.24 314.806 150.674" stroke="#4D8C81" stroke-opacity="0.49"/>
<path d="M-270.941 -214.297C-175.171 -161.533 13.8733 -24.3053 3.88759 102.49C-8.59451 260.984 259.014 356.247 322.646 120.682" stroke="#4D8C81" stroke-opacity="0.49"/>
<path d="M-265.379 -235.582C-169.609 -182.818 19.4358 -45.5904 9.45009 81.205C-3.03201 239.699 264.576 334.962 328.209 99.3967" stroke="#4D8C81" stroke-opacity="0.49"/>
<path d="M-257.035 -267.51C-161.265 -214.745 27.7795 -77.518 17.7938 49.2774C5.31174 207.772 272.92 303.034 336.552 67.4691" stroke="#4D8C81" stroke-opacity="0.49"/>
<path d="M-250.967 -290.73C-155.196 -237.965 33.8479 -100.738 23.8622 26.0573C11.3801 184.552 278.989 279.814 342.621 44.249" stroke="#4D8C81" stroke-opacity="0.49"/>
<path d="M-244.393 -315.885C-148.622 -263.121 40.4221 -125.893 30.4364 0.902244C17.9543 159.397 285.563 254.659 349.195 19.0939" stroke="#4D8C81" stroke-opacity="0.49"/>
<path d="M-239.336 -335.235C-143.566 -282.471 45.4787 -145.243 35.4931 -18.4478C23.011 140.046 290.619 235.309 354.252 -0.256149" stroke="#4D8C81" stroke-opacity="0.49"/>
<path d="M-233.771 -356.52C-138.001 -303.756 51.0432 -166.528 41.0575 -39.7329C28.5754 118.761 296.184 214.024 359.816 -21.5412" stroke="#4D8C81" stroke-opacity="0.49"/>
<path d="M-229.727 -372C-133.956 -319.236 55.0881 -182.008 45.1024 -55.213C32.6203 103.281 300.229 198.544 363.861 -37.0213" stroke="#4D8C81" stroke-opacity="0.49"/>
</svg>
